<?xml version="1.0" encoding="UTF-8" standalone="no"?>
<!-- Created with Inkscape (http://www.inkscape.org/) -->

<svg
   width="375mm"
   height="152.00002mm"
   viewBox="0 0 375 152.00001"
   version="1.1"
   id="svg1"
   xml:space="preserve"
   xmlns="http://www.w3.org/2000/svg"
   xmlns:svg="http://www.w3.org/2000/svg"><defs
     id="defs1" /><g
     id="layer1"><g
       id="g766"
       transform="translate(649.94052,99.368028)"><path
         style="fill:#b6c0ca"
         d="m -323.91624,-36.200653 -0.0743,7.757952 -7e-5,-15.345834 -7e-5,-15.345834 0.0744,7.587882 0.0744,7.587882 z"
         id="path771" /><path
         style="fill:#b59c69"
         d="m -483.46007,8.4005294 -0.0753,6.8130216 V 1.5875083 -12.038534 l 0.0753,6.8130212 0.0753,6.8130211 z"
         id="path770" /><path
         style="fill:#aa8c50"
         d="m -592.00826,18.994551 -1.31984,0.197179 -1.5875,-0.173245 -1.5875,-0.173245 -1.15774,-0.426782 -1.15775,-0.426782 h -0.85036 -0.85037 l -0.30699,-2.498085 -0.307,-2.498084 v -0.280041 -0.280041 h 0.21742 0.21742 l 0.6214,1.374948 0.6214,1.374948 1.12107,1.121073 1.12107,1.121073 1.39543,0.414396 1.39542,0.414396 0.94417,-0.0015 0.94416,-0.0015 0.98397,-0.273276 0.98397,-0.273275 0.81147,-0.682807 0.81147,-0.682807 0.38737,-0.749094 0.38738,-0.749095 v -1.344852 -1.344851 l -0.63506,-1.253215 -0.63505,-1.2532152 -1.28318,-1.1954572 -1.28317,-1.1954573 -2.41608,-1.6510357 -2.41607,-1.6510357 -1.36657,-1.4449466 -1.36657,-1.4449466 -0.42568,-0.99498755 -0.42568,-0.99498758 -0.005,-1.58750007 -0.005,-1.5875001 0.42088,-0.79375 0.42088,-0.79375 1.01399,-0.9534992 1.014,-0.9534992 1.17116,-0.4520998 1.17116,-0.4520998 1.60696,0.00572 1.60697,0.00572 1.98437,0.5337538 1.98438,0.5337538 0.56527,0.00623 0.56527,0.00623 0.16941,1.2567708 0.16942,1.2567709 0.14847,0.9921876 0.14846,0.9921875 h -0.29439 -0.29438 l -0.24623,-0.6476267 -0.24623,-0.6476267 -1.00399,-1.1136833 -1.004,-1.1136833 -1.32292,-0.6173554 -1.32291,-0.6173554 -1.20071,-0.00258 -1.20071,-0.00258 -1.16505,0.5953125 -1.16505,0.5953126 -0.51254,0.7039895 -0.51254,0.7039896 0.0245,1.2203057 0.0245,1.2203056 0.43577,0.9183328 0.43578,0.91833284 1.01405,1.04490597 1.01404,1.04490599 2.99149,2.2198692 2.99148,2.2198693 1.14805,1.254451 1.14806,1.254451 0.55157,1.2371044 0.55157,1.237105 0.004,1.591478 0.004,1.591479 -0.63505,1.271568 -0.63506,1.271569 -1.20049,0.862238 -1.2005,0.862238 -0.79682,0.315584 -0.79682,0.315585 z m 18.92079,-0.01507 -1.45521,0.22178 -1.24836,-0.184782 -1.24836,-0.184782 -1.13289,-0.757497 -1.13289,-0.757496 -0.8563,-1.274533 -0.8563,-1.274532 -0.29856,-1.099962 -0.29856,-1.099962 0.13137,-2.38125 0.13137,-2.3812501 0.57024,-1.496665 0.57024,-1.4966649 1.14268,-1.0532825 1.14267,-1.0532826 0.62129,-0.3325009 0.62128,-0.332501 1.33512,-0.3555572 1.33512,-0.3555572 1.90101,-0.00314 1.901,-0.00314 0.74483,0.2822079 0.74483,0.2822079 0.59531,0.5576627 0.59532,0.5576627 v 0.582941 0.5829409 l -0.39344,0.3265255 -0.39344,0.3265255 -0.70864,-0.1778573 -0.70864,-0.1778572 -1.18413,-1.0423131 -1.18413,-1.0423131 h -1.2651 -1.2651 l -1.12515,0.8598958 -1.12514,0.8598959 -0.60336,1.190625 -0.60335,1.1906251 -0.27644,1.269794 -0.27644,1.2697939 v 0.9897223 0.989721 l 0.40196,1.543247 0.40197,1.543247 0.54252,0.761906 0.54253,0.761907 0.90622,0.69121 0.90622,0.691209 1.68289,0.135086 1.68288,0.135086 0.94202,-0.310894 0.94202,-0.310894 1.21292,-1.06766 1.21293,-1.067661 v 0.355936 0.355936 l -1.10384,1.137276 -1.10385,1.137277 -1.07897,0.632079 -1.07897,0.632079 z m 81.49167,0.02236 -1.19063,0.210962 -0.79375,-0.180252 -0.79375,-0.180252 -0.6842,-0.274971 -0.6842,-0.274971 -0.88134,-0.881336 -0.88133,-0.881337 -0.676,-1.456818 -0.67599,-1.456819 -0.007,-2.513541 -0.007,-2.5135421 0.69316,-1.47809 0.69316,-1.4780901 0.97541,-0.9754035 0.9754,-0.9754036 1.00514,-0.6345151 1.00513,-0.6345152 1.63349,-0.3213696 1.6335,-0.3213697 1.24906,0.1698619 1.24905,0.169862 0.72761,0.1615065 0.7276,0.1615066 v -5.4480084 -5.4480083 l -0.78061,-0.4036696 -0.78061,-0.4036696 h -0.5423 -0.54231 v -0.2732491 -0.2732492 l 2.5466,-1.1819589 2.54661,-1.18196 h 0.0992 0.0992 l 0.004,13.6921885 0.004,13.6921885 0.33309,0.661458 0.33309,0.661458 1.18436,0.148967 1.18436,0.148967 -0.92604,0.419786 -0.92604,0.419785 -1.69926,0.688018 -1.69926,0.688019 h -0.21897 -0.21897 v -1.058333 -1.058334 l -0.19843,-0.0012 -0.19844,-0.0012 -1.85209,0.929956 -1.85208,0.929956 z m 1.80991,-1.674587 1.14845,-0.125781 1.16665,-0.516064 1.16665,-0.516065 V 10.953923 5.7384987 l -0.69689,-0.9136691 -0.69689,-0.9136691 -1.08904,-0.4945569 -1.08905,-0.494557 -1.04095,-0.00581 -1.04094,-0.00581 -1.11233,0.5384714 -1.11234,0.5384713 -0.70914,1.0232935 -0.70914,1.0232935 -0.37873,1.2584108 -0.37872,1.2584107 v 1.6678162 1.667816 l 0.52452,1.401927 0.52453,1.401927 0.96193,0.990354 0.96193,0.990353 1.22552,0.391035 1.22552,0.391034 z m 73.59634,1.652814 -1.45521,0.21121 -1.5875,-0.169589 -1.5875,-0.169589 -0.79375,-0.323286 -0.79375,-0.323287 -1.19062,-0.175623 -1.19063,-0.175624 -0.29603,-2.510991 -0.29603,-2.510992 0.20364,-0.225109 0.20364,-0.225109 0.82466,1.727929 0.82467,1.72793 1.06112,0.840422 1.06112,0.840422 1.22522,0.368737 1.22522,0.368737 h 1.15707 1.15707 l 0.98008,-0.409503 0.98008,-0.409503 0.62406,-0.582685 0.62406,-0.582684 0.40606,-0.780839 0.40606,-0.780838 -0.0123,-1.369355 -0.0123,-1.369355 -0.53103,-1.024807 -0.53103,-1.0248063 -1.0059,-1.0225945 -1.00591,-1.0225944 -2.65227,-1.8771405 -2.65227,-1.8771406 -1.25355,-1.1683562 -1.25355,-1.1683561 -0.69466,-1.41982983 -0.69466,-1.41982977 0.10393,-1.8393528 0.10394,-1.8393527 0.8105,-1.0071017 0.8105,-1.0071016 0.8753,-0.5958751 0.8753,-0.5958751 1.07941,-0.2906556 1.07942,-0.2906556 1.41728,0.016929 1.41729,0.016929 1.96421,0.5388727 1.9642,0.5388728 h 0.49754 0.49753 l 0.14091,0.5953125 0.14092,0.5953125 0.18317,1.7859376 0.18318,1.7859375 h -0.13786 -0.13786 l -0.80964,-1.4345957 -0.80963,-1.4345958 -0.88744,-0.6768804 -0.88743,-0.6768804 -1.13958,-0.4020656 -1.13957,-0.4020656 h -1.07383 -1.07382 l -1.16773,0.5652847 -1.16772,0.5652848 -0.50232,0.8237778 -0.50233,0.8237778 -9.9e-4,1.0006856 -9.8e-4,1.0006856 0.40907,0.9836895 0.40908,0.98368947 1.24457,1.27218615 1.24457,1.27218618 2.42655,1.7239917 2.42656,1.7239916 1.32038,1.2659735 1.32039,1.2659735 0.71441,1.4098353 0.71442,1.4098351 0.13531,1.492195 0.13531,1.492196 -0.51992,1.170193 -0.51993,1.170193 -0.71545,0.846379 -0.71545,0.846378 -1.37692,0.666694 -1.37691,0.666694 z m 20.37292,6.85e-4 -1.45521,0.218314 -1.52491,-0.197751 -1.52491,-0.197751 -1.14128,-0.668835 -1.14128,-0.668835 -1.00813,-0.993882 -1.00814,-0.993882 -0.6913,-1.455209 -0.6913,-1.455208 v -2.38125 -2.3812501 l 0.66146,-1.2990218 0.66145,-1.2990217 1.13233,-1.1666049 1.13233,-1.1666049 1.51351,-0.6974778 1.5135,-0.6974778 2.11667,-0.011896 2.11666,-0.011896 1.5176,0.7112451 1.51759,0.7112451 1.28877,1.2887699 1.28877,1.2887698 0.56708,1.5156395 0.56707,1.5156396 v 1.832233 1.832233 l -0.54932,1.468188 -0.54932,1.468188 -1.23662,1.266247 -1.23662,1.266247 -1.19062,0.57129 -1.19063,0.57129 z m -0.52325,-0.792163 1.72572,-0.07512 0.88792,-0.632261 0.88793,-0.632261 0.69365,-1.47916 0.69365,-1.479159 -0.002,-2.513542 -0.002,-2.5135417 -0.87264,-1.8520834 -0.87264,-1.8520834 -0.9775,-1.012143 -0.97751,-1.0121429 -0.8922,-0.3769196 -0.89221,-0.3769196 h -1.38377 -1.38377 l -0.89902,0.5953125 -0.89903,0.5953125 -0.79375,1.5875001 -0.79375,1.5875 0.0101,2.7781251 0.0101,2.7781254 0.80731,1.719791 0.80732,1.719792 0.90239,0.891081 0.90239,0.891081 0.79375,0.369416 0.79375,0.369416 z m 62.32428,0.831358 -1.12295,0.209789 -1.2162,-0.308807 -1.21621,-0.308808 -0.9628,-0.734362 -0.9628,-0.734362 -0.78259,-1.080336 -0.78259,-1.080337 -0.42397,-1.458395 -0.42397,-1.458395 0.13504,-2.1644354 0.13503,-2.1644358 0.99853,-1.9002089 0.99854,-1.9002089 1.08326,-0.8756225 1.08327,-0.8756226 0.92605,-0.2766678 0.92604,-0.2766678 0.98826,-0.1658253 0.98827,-0.1658254 1.08624,0.2924925 1.08623,0.2924924 1.1005,1.0159942 1.1005,1.0159941 0.7276,1.4411817 0.72761,1.4411816 v 0.9605923 0.9605922 l -5.75469,0.071306 -5.75469,0.071306 -0.0819,1.1349673 -0.0819,1.1349671 0.42818,1.472904 0.42819,1.472903 1.27274,1.272748 1.27275,1.272747 1.02677,0.285094 1.02678,0.285093 1.00068,0.0015 1.00069,0.0015 0.98369,-0.409118 0.98369,-0.409118 0.99698,-0.68852 0.99698,-0.688521 0.13781,0.137809 0.1378,0.137809 -1.32527,1.191539 -1.32528,1.191539 -1.222,0.574409 -1.22201,0.574409 z m -0.81457,-11.6116091 h 4.10104 V 6.7641078 6.1198737 l -0.28034,-0.7448284 -0.28033,-0.7448285 -0.95252,-0.9804391 -0.95251,-0.980439 -0.75153,-0.1650627 -0.75152,-0.1650627 -0.79461,0.1745253 -0.79461,0.1745253 -0.83281,0.832813 -0.83281,0.832813 -0.48344,1.0642052 -0.48343,1.0642051 -0.006,0.4630208 -0.006,0.4630209 z M -473.314,19.050009 h -1.30787 l -0.85003,-0.71525 -0.85002,-0.715251 -0.3609,-0.863751 -0.3609,-0.863752 V 10.062673 4.2333418 l -0.7276,-0.00405 -0.72761,-0.00405 -0.39687,-0.2530729 -0.39688,-0.2530728 0.66146,-0.4392555 0.66146,-0.4392555 1.91708,-1.99469703 1.91708,-1.99469707 0.17583,0.17582927 0.17583,0.17582924 -0.30697,1.02459025 -0.30698,1.02459024 v 0.3000323 0.3000324 h 2.77309 2.77308 l 0.12989,0.5953125 0.12988,0.5953125 0.0736,0.5291667 0.0736,0.5291667 -2.97656,0.074811 -2.97657,0.074811 v 5.667427 5.6674279 l 0.29891,0.656024 0.2989,0.656025 0.74387,0.30812 0.74387,0.30812 0.92507,-0.3053 0.92507,-0.305301 0.68053,-0.535305 0.68053,-0.535306 0.29217,0.09739 0.29217,0.09739 -0.7358,0.874444 -0.73579,0.874443 -1.00887,0.636869 -1.00886,0.636868 z m -87.61825,-0.264583 h -4.24895 l 0.15094,-0.244228 0.15094,-0.244227 0.80238,-0.176232 0.80238,-0.176233 0.5175,-0.555472 0.5175,-0.555472 V 4.1902461 -8.4530696 l -0.78061,-0.4036696 -0.78061,-0.4036696 h -0.5423 -0.54231 v -0.2625633 -0.2625634 l 2.55219,-1.1926445 2.55219,-1.192646 h 0.0936 0.0937 v 8.0481528 8.0481524 l 0.15962,0.4159781 0.15963,0.4159781 1.57043,-1.4211612 1.57044,-1.4211613 1.17906,-0.3301169 1.17906,-0.330117 1.08391,0.1733239 1.08391,0.1733239 0.96998,0.4948494 0.96999,0.4948495 0.658,1.1517872 0.65801,1.1517872 0.13367,5.9793719 0.13366,5.979372 0.36212,0.435557 0.36211,0.435557 1.02695,0.307681 1.02695,0.307681 v 0.222703 0.222703 h -4.28625 -4.28625 l 0.25135,-0.232621 0.25136,-0.232621 0.9532,-0.3042 0.95321,-0.304199 0.30356,-0.666254 0.30357,-0.666254 -10e-4,-5.213072 -10e-4,-5.2130715 -0.27935,-1.0059506 -0.27934,-1.0059506 -0.84366,-0.5144146 -0.84366,-0.5144146 -1.26731,-9.89e-4 -1.26731,-9.891e-4 -0.98512,0.502568 -0.98511,0.502568 -0.72072,0.7207184 -0.72072,0.7207183 -0.26653,0.9595263 -0.26652,0.9595262 0.0135,4.2333338 0.0135,4.233333 0.3158,0.926042 0.3158,0.926042 1.12447,0.388716 1.12448,0.388717 v 0.206596 0.206596 z m 21.57915,0 h -4.10104 V 18.562723 18.34002 l 1.07884,-0.323228 1.07884,-0.323228 0.37637,-0.90078 0.37637,-0.900779 V 10.386128 4.8802513 l -0.40448,-0.5774757 -0.40448,-0.5774757 -0.92136,-0.172848 -0.92136,-0.1728481 -0.1334,-0.2158473 -0.1334,-0.2158473 2.553,-1.2093671 2.553,-1.20936714 h 0.22915 0.22916 V 2.3812584 4.2333418 h 0.14462 0.14462 l 2.04814,-1.1813651 2.04814,-1.1813651 1.35487,-0.2905689 1.35488,-0.290569 1.07057,0.2882742 1.07057,0.2882741 0.94687,1.1555356 0.94687,1.1555357 2.96408,-1.3456739 2.96407,-1.3456739 h 1.22922 1.22922 l 0.71757,0.4701705 0.71757,0.4701704 0.70006,1.4989402 0.70006,1.4989402 0.13494,5.7787572 0.13494,5.778758 0.62702,0.507041 0.62703,0.507041 1.02662,0.164164 1.02662,0.164163 v 0.230767 0.230768 h -4.49792 -4.49791 v -0.243561 -0.243561 l 0.76052,-0.167039 0.76052,-0.167039 0.62854,-0.66895 0.62854,-0.66895 V 11.422021 6.2177168 l -0.44092,-0.9716079 -0.44092,-0.971608 -0.7294,-0.4779186 -0.72939,-0.4779187 -0.94635,0.025024 -0.94635,0.025024 -2.02811,0.8445494 -2.02811,0.8445495 -0.1547,0.4031551 -0.15471,0.403155 v 5.0139424 5.013942 l 0.37637,0.900779 0.37637,0.90078 1.07884,0.323228 1.07884,0.323228 v 0.222703 0.222703 h -4.24895 -4.24895 l 0.15094,-0.244228 0.15094,-0.244227 0.78749,-0.172962 0.7875,-0.172962 0.53239,-0.676825 0.53239,-0.676826 V 11.051505 5.505613 l -0.44061,-0.7458815 -0.4406,-0.7458815 -0.63018,-0.2871292 -0.63018,-0.2871291 h -1.32101 -1.321 l -1.11394,0.5637172 -1.11394,0.5637173 -0.7276,0.5126327 -0.72761,0.5126328 v 5.6244043 5.624405 l 0.59531,0.555674 0.59532,0.555674 0.7276,0.180588 0.7276,0.180588 v 0.2359 0.235901 z m 33.20521,0 h -4.23333 v -0.252595 -0.252594 l 0.90874,-0.170482 0.90875,-0.170482 0.48032,-0.530115 0.48031,-0.530115 0.0813,-5.726101 0.0812,-5.7261004 -0.57358,-0.4644582 -0.57358,-0.4644583 -0.566,-0.00405 -0.566,-0.00405 -0.3737,-0.2365569 -0.3737,-0.2365569 2.684,-1.3468917 2.68399,-1.3468916 h 0.1371 0.1371 v 7.6372356 7.6372354 l 0.54063,0.687302 0.54063,0.687301 0.91458,0.171576 0.91458,0.171575 v 0.235138 0.235138 z m 124.35417,0 h -4.23333 V 18.550288 18.31515 l 0.91458,-0.171575 0.91457,-0.171576 0.54064,-0.687301 0.54063,-0.687302 V 4.2168639 -8.1636684 l -0.69714,-0.5483702 -0.69714,-0.5483702 h -0.62578 -0.62578 V -9.540337 -9.8202652 l 2.53222,-1.1752798 2.53221,-1.175281 h 0.11362 0.11362 v 8.2902786 8.2902781 l 0.16999,0.1699879 0.16999,0.169988 1.51818,-1.4055682 1.51818,-1.4055683 1.19746,-0.3352672 1.19745,-0.3352672 1.14927,0.1904622 1.14927,0.1904622 0.52917,0.2669207 0.52917,0.2669206 0.61841,0.5622493 0.61842,0.5622494 0.42422,0.9260417 0.42422,0.9260417 0.0926,5.5562505 0.0926,5.55625 0.29037,0.738401 0.29036,0.738401 1.15406,0.308662 1.15405,0.308663 v 0.209707 0.209708 h -4.23333 -4.23334 v -0.252595 -0.252594 l 0.90875,-0.170482 0.90875,-0.170482 0.48031,-0.531308 0.48032,-0.531308 V 11.150312 5.4239668 l -0.368,-0.8723731 -0.36799,-0.8723732 -0.74335,-0.3843977 -0.74334,-0.3843978 h -1.24093 -1.24093 l -1.18949,0.5940609 -1.18949,0.5940608 -0.69158,0.9064355 -0.69157,0.9064356 v 5.4828952 5.482895 l 0.48032,0.531033 0.48031,0.531032 0.90875,0.170482 0.90875,0.170482 v 0.252594 0.252595 z m 21.68022,0 h -4.24895 l 0.15095,-0.244228 0.15094,-0.244227 0.78749,-0.172962 0.78749,-0.172962 0.53239,-0.676825 0.53239,-0.676826 V 10.422164 4.2469308 l -0.78061,-0.4036695 -0.78061,-0.4036696 h -0.54231 -0.5423 V 3.1779613 2.9163309 l 2.05052,-1.0264471 2.05052,-1.026447 0.59531,-0.18496058 0.59531,-0.18496057 V 2.231137 3.9687584 h 0.24286 0.24286 l 2.73371,-1.2391589 2.7337,-1.2391589 1.21062,-0.00235 1.21061,-0.00235 0.80411,0.5725753 0.80411,0.5725753 0.62651,1.3965353 0.62651,1.3965354 0.0931,5.7530611 0.0931,5.753061 0.67891,0.53403 0.67891,0.534031 1.01853,0.16287 1.01854,0.162871 v 0.230767 0.230768 h -4.49792 -4.49791 V 18.54186 18.298299 l 0.76052,-0.167039 0.76052,-0.167039 0.62854,-0.66895 0.62854,-0.66895 v -5.2043 -5.2043042 l -0.52916,-1.0583333 -0.52917,-1.0583334 -0.98826,-0.4829363 -0.98827,-0.4829362 -1.51731,0.4410957 -1.51732,0.4410958 -1.06629,0.5404039 -1.0663,0.540404 -0.19439,0.2951866 -0.19438,0.2951866 -0.004,5.1017278 -0.004,5.101727 0.37637,0.900779 0.37637,0.90078 1.07884,0.323228 1.07884,0.323228 v 0.222703 0.222703 z m -87.29689,-3.439584 h -1.05833 V 11.641675 7.9375086 h -3.57187 -3.57188 V 6.8791752 5.8208418 h 3.57188 3.57187 V 2.116675 -1.5874918 h 1.05833 1.05834 V 2.116675 5.8208418 h 3.43958 3.43958 v 1.0583334 1.0583334 h -3.43958 -3.43958 v 3.7041664 3.704167 z m 46.4076,-17.7270838 h -0.65873 l -0.64943,-0.6494319 -0.64943,-0.6494318 v -0.769697 -0.769697 l 0.69753,-0.6975379 0.69754,-0.6975379 h 0.61063 0.61062 l 0.72031,0.6195843 0.72031,0.6195844 v 0.877498 0.8774981 l -0.72031,0.6195843 -0.72031,0.6195844 z m 7.74741,0 h -0.63781 l -0.69714,-0.5483702 -0.69714,-0.5483702 v -0.9930093 -0.9930093 l 0.61237,-0.5752872 0.61236,-0.5752873 h 0.72258 0.72258 l 0.64943,0.6494318 0.64943,0.6494319 v 0.817803 0.8178031 l -0.64943,0.6494318 -0.64943,0.6494319 z m -113.28938,-1.8520834 h -0.66146 l -0.52917,-0.5291667 -0.52916,-0.5291667 V -5.953117 -6.6145753 l 0.52916,-0.5291667 0.52917,-0.5291667 h 0.77875 0.77874 l 0.41188,0.5880381 0.41188,0.5880382 v 0.6025869 0.6025869 l -0.52917,0.5291667 -0.52916,0.5291667 z"
         id="path769" /><path
         style="fill:#6f7373"
         d="m -509.93227,-77.787495 h -0.34479 l -0.60353,-1.873897 -0.60353,-1.873897 0.15454,-0.15454 0.15454,-0.15454 1.00506,1.088676 1.00506,1.088677 0.73199,0.278302 0.73199,0.278303 h 0.86969 0.86969 l 0.89902,-0.603824 0.89903,-0.603824 0.0833,-1.003902 0.0833,-1.003902 -0.41654,-0.635726 -0.41654,-0.635727 -0.72512,-0.367791 -0.72511,-0.367791 -1.89725,-0.130053 -1.89724,-0.130054 -0.98893,-0.513208 -0.98893,-0.513207 -0.48726,-0.908556 -0.48726,-0.908555 v -0.766648 -0.766648 l 0.55582,-0.899351 0.55583,-0.89935 1.07379,-0.547803 1.07378,-0.547803 1.42517,0.01702 1.42518,0.01702 0.14852,-0.387037 0.14852,-0.387037 h 0.22866 0.22866 l 0.56682,1.86614 0.56683,1.866141 -0.16965,0.169645 -0.16965,0.169646 -0.81024,-0.982972 -0.81025,-0.982972 -0.7568,-0.391355 -0.7568,-0.391356 h -0.82724 -0.82724 l -0.7734,0.773397 -0.7734,0.773398 v 0.799348 0.799349 l 0.59631,0.693252 0.59631,0.693252 2.66244,0.347938 2.66244,0.347938 0.83781,0.433251 0.83782,0.433251 0.40135,0.776132 0.40136,0.776132 v 1.238578 1.238578 l -1.12903,1.129027 -1.12903,1.129026 -1.16726,0.314312 -1.16727,0.314312 -1.14329,-0.171447 -1.14329,-0.171447 v 0.413086 0.413087 z m 88.92257,-0.546866 -0.86839,-0.0177 -1.09262,-0.341853 -1.09261,-0.341853 -0.5991,-0.419628 -0.59911,-0.419629 -0.48935,-0.742173 -0.48935,-0.742174 -0.002,-1.104179 -0.002,-1.104179 0.65438,-0.777682 0.65437,-0.777681 1.19771,-0.335338 1.19771,-0.335337 -0.001,-0.03176 -10e-4,-0.03176 -0.66035,-1.301612 -0.66035,-1.301612 v -0.378193 -0.378194 l 0.42147,-0.888187 0.42148,-0.888187 1.18188,-0.572141 1.18189,-0.572142 1.09235,0.174674 1.09235,0.174673 0.96614,0.543003 0.96615,0.543003 0.43919,0.743489 0.43919,0.743489 v 0.868846 0.868847 l -0.58273,0.850435 -0.58273,0.850435 -1.00477,0.301037 -1.00477,0.301037 v 0.207842 0.207842 l 0.66186,0.621786 0.66186,0.621786 0.24108,0.873139 0.24109,0.873139 -0.14944,0.601717 -0.14944,0.601716 -0.52826,0.757539 -0.52825,0.757539 -0.87821,0.36694 -0.87822,0.366941 z m -0.37891,-0.521823 0.75406,0.01036 0.89958,-0.899583 0.89959,-0.899584 v -0.701056 -0.701056 l -0.39277,-0.759533 -0.39277,-0.759533 -1.20795,-0.989821 -1.20795,-0.989821 -0.92928,0.443143 -0.92928,0.443143 -0.53549,1.210571 -0.53549,1.210571 0.17299,0.704092 0.17299,0.704092 0.39893,0.616482 0.39892,0.616481 0.83993,0.36535 0.83992,0.365349 z m 1.97531,-6.607162 0.0835,0.0029 0.57792,-0.307801 0.57791,-0.307801 0.31261,-0.419803 0.31261,-0.419803 0.29973,-1.062475 0.29973,-1.062475 -0.2698,-0.709625 -0.2698,-0.709625 -0.70759,-0.463629 -0.70758,-0.46363 h -0.92601 -0.92601 l -0.62717,0.72913 -0.62717,0.729129 v 0.792135 0.792135 l 0.39163,0.75733 0.39163,0.75733 0.86514,0.681805 0.86514,0.681805 z m -9.95787,4.246143 -0.17984,0.40675 -4.1773,-0.935917 -4.1773,-0.935917 0.0763,-0.632521 0.0763,-0.632521 2.38125,-1.400659 2.38125,-1.400659 1.14406,-0.744945 1.14406,-0.744945 0.54319,-1.047525 0.5432,-1.047525 0.0325,-1.421911 0.0325,-1.421911 -0.74236,-0.639418 -0.74236,-0.639418 h -0.88964 -0.88965 l -0.41852,0.160599 -0.41851,0.160599 v 0.844817 0.844818 l -0.3175,0.3175 -0.3175,0.3175 h -0.46694 -0.46694 l -0.25677,-0.479776 -0.25677,-0.479777 0.3136,-0.619197 0.31361,-0.619197 0.69557,-0.516273 0.69558,-0.516273 1.50547,0.01798 1.50548,0.01798 1.10624,0.605077 1.10624,0.605077 0.48788,0.998596 0.48787,0.998597 -0.31509,1.31344 -0.31509,1.31344 -0.50168,0.637778 -0.50167,0.637779 -3.73379,1.918912 -3.73378,1.918913 0.35851,0.191983 0.35851,0.191983 3.37344,0.73448 3.37344,0.734479 -0.0186,0.290227 -0.0186,0.290227 z m -69.92152,0.254708 h -0.24061 v -0.2359 -0.235901 l 0.63227,-0.15869 0.63227,-0.158691 0.15585,-0.406136 0.15585,-0.406136 -0.9335,-4.292502 -0.93349,-4.292503 -0.25884,-0.981575 -0.25885,-0.981576 -0.93846,-0.176057 -0.93846,-0.176057 0.2182,-0.193727 0.2182,-0.193727 4.10104,-0.849535 4.10104,-0.849534 0.56393,-0.135017 0.56393,-0.135017 0.32578,1.358005 0.32578,1.358005 -0.17381,0.173816 -0.17382,0.173817 -0.5836,-0.69234 -0.58361,-0.69234 -0.63512,-0.320125 -0.63513,-0.320125 -1.94456,0.332628 -1.94456,0.332628 0.008,0.557885 0.008,0.557885 0.47821,2.116667 0.47822,2.116667 0.88138,-0.07325 0.88139,-0.07325 0.68267,-0.326241 0.68266,-0.326241 0.2451,-0.989574 0.2451,-0.989575 h 0.16362 0.16362 l 0.47222,2.27201 0.47222,2.27201 -0.18956,0.175386 -0.18956,0.175386 -0.12914,-0.363802 -0.12914,-0.363802 -0.52965,-0.529647 -0.52964,-0.529646 -1.44951,0.149602 -1.44951,0.149603 -0.0835,0.08349 -0.0835,0.08349 0.54056,2.380145 0.54055,2.380146 0.26465,0.330729 0.26465,0.330729 h 0.97791 0.97791 l 1.39116,-0.413127 1.39115,-0.413128 0.50314,-1.108227 0.50314,-1.108226 0.006,-0.595313 0.006,-0.595312 h 0.2359 0.2359 l 0.14198,0.595312 0.14199,0.595313 0.17609,1.221861 0.17608,1.221862 -0.62012,0.155018 -0.62012,0.155018 -4.45573,0.938225 -4.45574,0.938224 z m 13.0547,-2.495681 -0.59531,0.124513 v -0.236552 -0.236551 l 0.79999,-0.159999 0.8,-0.159999 0.16861,-0.439409 0.16862,-0.439408 -0.69682,-5.056062 -0.69681,-5.056061 -0.56569,-0.463021 -0.56569,-0.46302 h -0.49986 -0.49985 v -0.229969 -0.229968 l 2.33302,-0.299199 2.33302,-0.299198 0.64354,0.01271 0.64354,0.01271 -0.92604,0.451208 -0.92604,0.451208 -0.0746,0.660563 -0.0746,0.660563 0.65041,4.711841 0.65041,4.711842 0.31652,0.381388 0.31652,0.381387 h 0.76136 0.76135 v 0.237255 0.237255 l -2.3151,0.304732 -2.31511,0.304732 z m 39.02604,-0.506095 -0.46302,0.127019 v -0.414705 -0.414705 l 0.8599,-0.0025 0.85989,-0.0025 1.38872,-0.796425 1.38873,-0.796424 0.63607,-0.98703 0.63607,-0.987031 0.17585,-0.595312 0.17585,-0.595313 h -0.36179 -0.36179 l -0.29561,0.295612 -0.29561,0.295612 -1.45644,0.03512 -1.45643,0.03512 -0.74827,-0.552571 -0.74826,-0.55257 -0.45032,-0.902638 -0.45031,-0.902638 -0.007,-0.926042 -0.007,-0.926042 0.50258,-1.106979 0.50259,-1.10698 1.06452,-0.704468 1.06452,-0.704468 1.34804,0.01044 1.34803,0.01044 0.94675,0.585123 0.94675,0.585123 0.49211,1.083592 0.49211,1.083591 0.006,1.620381 0.006,1.620381 -0.39953,1.132406 -0.39954,1.132407 -0.9615,1.260809 -0.96151,1.260808 -1.21864,0.660541 -1.21865,0.66054 -1.05833,0.177613 -1.05834,0.177612 z m 3.45272,-5.472936 0.87304,0.008 0.76414,-0.395152 0.76414,-0.395153 0.1813,-1.208976 0.1813,-1.208976 -0.13574,-1.204222 -0.13573,-1.204221 -0.51857,-0.697379 -0.51856,-0.697379 -1.04623,-0.07883 -1.04622,-0.07883 -0.70415,0.553884 -0.70415,0.553883 -0.27222,0.980153 -0.27222,0.980152 -10e-4,1.005327 -10e-4,1.005327 0.39687,0.76746 0.39687,0.767461 0.46302,0.269688 0.46303,0.269688 z m -31.36626,4.677408 -1.38906,0.166845 v -0.246722 -0.246722 l 0.85989,-0.253153 0.8599,-0.253152 -0.008,-2.248959 -0.008,-2.248958 -0.21712,-3.638021 -0.21712,-3.638021 h -0.88171 -0.88171 l -0.65008,0.24716 -0.65008,0.247159 -0.62392,1.329495 -0.62391,1.329495 -0.16169,0.01085 -0.16169,0.01085 -0.1497,-1.650935 -0.1497,-1.650935 0.0713,-0.07135 0.0714,-0.07135 4.34108,-0.259526 4.34108,-0.259526 1.38906,-0.137165 1.38907,-0.137164 v 1.722103 1.722103 h -0.26459 -0.26458 v -0.336591 -0.336592 l -0.81301,-0.986325 -0.81302,-0.986325 h -1.43088 -1.43088 l 0.12322,1.124479 0.12322,1.124479 0.28398,4.450221 0.28397,4.450222 0.13764,0.35867 0.13763,0.35867 1.03761,0.175302 1.0376,0.175303 v 0.241327 0.241327 l -1.65364,0.0023 -1.65365,0.0023 z m 21.29896,0.03873 -1.12448,-0.05441 -2.31511,-0.08819 -2.3151,-0.08818 v -0.254282 -0.254283 h 0.64901 0.64901 l 0.66091,-0.301132 0.66091,-0.301132 0.13413,-0.691055 0.13412,-0.691056 0.15936,-3.836458 0.15935,-3.836459 0.13742,-0.727604 0.13741,-0.727604 h -0.64941 -0.64941 l -0.82682,-0.165365 -0.82682,-0.165364 v -0.231511 -0.23151 h 1.18165 1.18164 l 0.9317,-0.444295 0.9317,-0.444295 0.1561,0.156105 0.15611,0.156105 -0.28464,4.323086 -0.28463,4.323086 -4.4e-4,1.786953 -4.4e-4,1.786953 1.19062,0.318444 1.19063,0.318443 v 0.209708 0.209707 z"
         id="path768" /><path
         style="fill:#48627b"
         d="m -476.58083,-36.200653 -0.0743,7.757952 -7e-5,-15.345834 -7e-5,-15.345834 0.0744,7.587882 0.0744,7.587882 z"
         id="path767" /><path
         style="fill:#193a59"
         d="m -529.89119,50.80001 h -1.27999 l -1.18054,-0.595312 -1.18054,-0.595313 -0.59219,-1.082881 -0.59219,-1.082882 -0.27293,-1.962306 -0.27294,-1.962306 0.2508,-1.320438 0.25079,-1.320437 0.26587,-0.698212 0.26588,-0.698211 0.87349,-0.994846 0.87348,-0.994845 0.91319,-0.381555 0.91319,-0.381555 1.90617,0.0196 1.90616,0.0196 0.69051,0.262531 0.69051,0.26253 v 0.370351 0.370351 l -0.16537,0.826823 -0.16536,0.826823 h -0.29922 -0.29921 l -0.35968,-0.812581 -0.35969,-0.812581 -0.86609,-0.413012 -0.8661,-0.413012 -0.92863,0.174213 -0.92864,0.174213 -0.69358,0.545575 -0.69359,0.545575 -0.39034,0.754829 -0.39033,0.754829 -0.25194,1.801497 -0.25193,1.801497 0.22035,1.748174 0.22035,1.748175 0.47218,0.995041 0.47217,0.995042 0.81493,0.510215 0.81493,0.510216 1.05833,-0.156127 1.05833,-0.156128 0.51986,-0.515654 0.51985,-0.515654 0.009,-1.612326 0.009,-1.612326 -0.59532,-0.482568 -0.59531,-0.482569 V 44.606037 44.45001 h 1.98438 1.98437 v 0.200939 0.200938 l -0.52917,0.33047 -0.52916,0.33047 v 2.643592 2.643591 h -0.3099 -0.30989 l -0.4598,-0.41611 -0.4598,-0.41611 -0.80467,0.41611 -0.80466,0.41611 z m 10.11726,0 h -1.98438 v -0.200938 -0.200939 l 0.52917,-0.33047 0.52917,-0.33047 V 43.68629 37.635387 l -0.59531,-0.434487 -0.59532,-0.434488 3.57188,0.08574 3.57187,0.08574 0.85542,0.453245 0.85542,0.453246 0.40135,0.776132 0.40136,0.776132 -9.9e-4,1.005327 -9.9e-4,1.005327 -0.53058,0.870233 -0.53057,0.870234 -0.92833,0.547725 -0.92832,0.547726 0.92145,1.019937 0.92145,1.019937 0.69992,1.398562 0.69991,1.398562 0.5461,0.595313 0.5461,0.595313 h 0.35076 0.35075 v 0.27841 0.27841 l -1.38906,-0.07997 -1.38906,-0.07997 -1.6073,-2.890696 -1.6073,-2.890697 -0.50937,-0.199561 -0.50937,-0.199562 -0.85989,-0.0186 -0.8599,-0.0186 v 2.643591 2.643592 l 0.52917,0.33047 0.52917,0.33047 v 0.200939 0.200938 z m 2.55287,-6.93324 1.62683,-0.117674 0.75442,-0.844342 0.75442,-0.844343 v -1.471386 -1.471387 l -0.7734,-0.773397 -0.77339,-0.773398 h -1.60786 -1.60785 v 3.206801 3.2068 z m 13.92594,6.906867 -1.13298,-0.02637 -0.5972,-0.172064 -0.5972,-0.172064 -0.95148,-0.760685 -0.95147,-0.760686 -0.40217,-0.959106 -0.40217,-0.959106 -0.22131,-1.719792 -0.2213,-1.719792 0.27893,-1.641277 0.27893,-1.641278 0.75509,-1.190649 0.75508,-1.19065 1.1031,-0.562755 1.10309,-0.562755 1.54272,0.0074 1.54272,0.0074 0.74128,0.385601 0.74128,0.385602 0.56436,0.620451 0.56437,0.620452 0.49397,0.926042 0.49397,0.926041 v 3.042709 3.042708 l -0.56957,1.058334 -0.56956,1.058333 -0.62467,0.582685 -0.62467,0.582684 -0.98008,0.409503 -0.98008,0.409503 z m 0.28225,-0.523682 0.35688,0.02089 0.85655,-0.406459 0.85655,-0.406458 0.61819,-1.099929 0.6182,-1.099929 0.12003,-2.698935 0.12004,-2.698934 -0.4666,-1.483423 -0.46659,-1.483424 -0.65483,-0.654829 -0.65483,-0.654829 -0.95001,-0.178223 -0.95001,-0.178223 -0.92693,0.502526 -0.92693,0.502526 -0.48123,0.829458 -0.48124,0.829457 -0.20718,1.720939 -0.20718,1.720939 0.18865,1.974987 0.18865,1.974988 0.5303,1.03947 0.5303,1.03947 0.61929,0.302779 0.61929,0.302779 0.39687,0.13075 0.39688,0.13075 z m 11.81394,0.527692 -1.32292,-0.01941 -0.26458,-0.08826 -0.26458,-0.08826 -0.72761,-0.160476 -0.7276,-0.160476 V 48.942886 47.62501 h 0.34787 0.34787 l 0.44857,0.940668 0.44858,0.940669 0.95075,0.397251 0.95076,0.397251 0.83249,-0.17586 0.83248,-0.175859 0.59532,-0.546722 0.59531,-0.546722 v -1.241115 -1.241115 l -0.50125,-0.637239 -0.50125,-0.637238 -1.906,-1.044795 -1.906,-1.044795 -0.66375,-0.788821 -0.66375,-0.788821 0.11586,-1.397185 0.11587,-1.397185 0.50774,-0.569784 0.50774,-0.569783 0.90562,-0.383017 0.90563,-0.383016 1.65446,0.0127 1.65446,0.0127 0.68106,0.170935 0.68106,0.170935 v 1.294234 1.294234 h -0.40342 -0.40343 l -0.23827,-0.626713 -0.23828,-0.626712 -0.7169,-0.563913 -0.7169,-0.563912 h -0.7712 -0.77121 l -0.74855,0.387089 -0.74855,0.387089 -0.16435,0.428301 -0.16436,0.4283 v 0.845531 0.84553 l 0.4084,0.583067 0.40839,0.583067 1.77442,1.056956 1.77442,1.056956 0.71486,0.666699 0.71486,0.666699 0.2524,0.91412 0.2524,0.914121 -0.21756,0.964644 -0.21756,0.964644 -0.59776,0.636288 -0.59776,0.636287 -0.94569,0.262706 -0.94569,0.262705 z m 11.05485,0.0015 -1.52985,-0.02089 -0.26458,-0.08826 -0.26459,-0.08826 -0.7276,-0.160476 -0.7276,-0.160476 V 48.942886 47.62501 h 0.37508 0.37509 l 0.48481,0.987082 0.48481,0.987083 0.95263,0.356683 0.95264,0.356683 1.09338,-0.294419 1.09339,-0.294418 0.31318,-0.585183 0.31318,-0.585182 v -1.141658 -1.141658 l -0.63941,-0.628266 -0.63941,-0.628265 -1.85208,-1.038064 -1.85209,-1.038065 -0.59531,-0.870304 -0.59531,-0.870304 9.9e-4,-0.95306 9.9e-4,-0.95306 0.53397,-0.875818 0.53397,-0.875817 0.96598,-0.403612 0.96598,-0.403611 1.65446,0.0127 1.65446,0.0127 0.68106,0.170935 0.68106,0.170935 v 1.294234 1.294234 h -0.41064 -0.41064 l -0.27951,-0.801789 -0.2795,-0.80179 -0.75193,-0.388836 -0.75192,-0.388835 h -0.69199 -0.69199 l -0.57792,0.307801 -0.57792,0.307801 -0.32232,0.419803 -0.32231,0.419803 -0.008,0.956506 -0.008,0.956506 0.50125,0.637239 0.50125,0.637239 1.91532,1.049903 1.91532,1.049903 0.69228,0.907631 0.69229,0.907632 v 1.388342 1.388343 l -0.66146,0.716873 -0.66146,0.716873 -0.8514,0.362776 -0.85139,0.362776 z m 9.58265,0.02089 h -1.98437 V 50.64401 50.487984 l 0.59531,-0.482227 0.59531,-0.482227 v -5.859271 -5.859271 l -0.66146,-0.508051 -0.66145,-0.508051 2.09664,-0.0059 2.09664,-0.0059 -0.57529,0.612365 -0.57529,0.612366 v 2.5713 2.5713 l 2.97657,-0.07481 2.97656,-0.07481 -0.0187,-2.608907 -0.0187,-2.608907 -0.64276,-0.494064 -0.64276,-0.494065 2.10041,-0.0059 2.10041,-0.0059 -0.57905,0.539474 -0.57906,0.539473 v 5.940576 5.940577 l 0.52917,0.33047 0.52916,0.33047 v 0.200939 0.200938 h -1.98437 -1.98438 v -0.233724 -0.233725 l 0.50629,-0.132397 0.50629,-0.132396 0.17342,-1.419817 0.17343,-1.419816 -0.0844,-1.719792 -0.0844,-1.719791 -2.97656,-0.07481 -2.97657,-0.07481 v 3.049132 3.049132 l 0.52917,0.33047 0.52917,0.33047 v 0.200939 0.200938 z m 13.89063,0 h -2.11667 v -0.111939 -0.111939 l 0.7276,-0.747957 0.72761,-0.747957 2.35589,-6.297493 2.35589,-6.297493 0.68032,0.07978 0.68033,0.07978 1.99087,6.441653 1.99087,6.441653 0.59531,0.479925 0.59531,0.479925 v 0.156026 0.156027 h -2.24896 -2.24896 v -0.264583 -0.264583 h 0.38757 0.38757 l 0.28029,-0.523738 0.2803,-0.523738 -0.16246,-0.733033 -0.16246,-0.733033 -0.26134,-0.859896 -0.26134,-0.859896 h -2.49957 -2.49957 l -0.29531,0.727604 -0.29532,0.727604 -0.0289,1.190625 -0.0289,1.190626 0.59531,0.261177 0.59531,0.261178 v 0.201843 0.201843 z m 4.07273,-5.55625 h 2.27727 v -0.0895 -0.0895 l -0.91876,-3.122315 -0.91876,-3.122316 -0.13958,-0.139573 -0.13957,-0.139573 -0.0869,0.110243 -0.0869,0.110243 -1.01453,2.910417 -1.01453,2.910417 -0.1175,0.330729 -0.11749,0.330729 z m 10.34706,5.55625 h -1.71979 V 50.599099 50.39816 l 0.52916,-0.33047 0.52917,-0.33047 v -6.05093 -6.050903 l -0.59531,-0.424218 -0.59531,-0.424218 1.56759,0.06122 1.56759,0.06122 2.7247,4.497917 2.72471,4.497916 0.30387,0.727605 0.30386,0.727604 h 0.24919 0.24918 l -0.0829,-4.778132 -0.0828,-4.778132 -0.66146,-0.507652 -0.66146,-0.507652 1.83206,-0.0059 1.83206,-0.0059 -0.57529,0.612365 -0.57529,0.612366 v 6.417495 6.417495 l -0.59061,-0.08455 -0.59061,-0.08455 -3.37579,-5.688542 -3.37578,-5.688542 -0.0984,-0.264584 -0.0984,-0.264583 -0.20121,0.18704 -0.20121,0.18704 0.19526,5.468043 0.19527,5.468043 0.49889,0.130463 0.49889,0.130464 v 0.233725 0.233724 z m 16.28615,-0.111583 -3.18927,0.186547 v -0.302065 -0.302065 h 0.39183 0.39183 l 0.20348,-0.727605 0.20348,-0.727604 v -5.50544 -5.505439 l -0.66146,-0.532785 -0.66146,-0.532785 3.43959,0.122001 3.43958,0.122002 1.12111,0.453499 1.12111,0.4535 0.78599,0.895187 0.78598,0.895187 0.29226,1.085346 0.29225,1.085346 v 1.650451 1.650451 l -0.18637,0.773406 -0.18638,0.773406 -0.46587,0.926042 -0.46587,0.926042 -0.6286,0.586369 -0.62859,0.58637 -1.10267,0.389044 -1.10267,0.389045 z m 1.0387,-0.682167 h 1.31757 l 1.0671,-0.426968 1.0671,-0.426969 0.48903,-0.697511 0.48902,-0.69751 0.32425,-0.99952 0.32425,-0.999519 -0.006,-2.278844 -0.006,-2.278845 -0.62744,-1.219553 -0.62745,-1.219553 -1.04279,-0.59096 -1.04279,-0.59096 -1.52135,-0.0044 -1.52136,-0.0044 v 6.217709 6.217708 z m 14.82203,0.79375 h -4.7625 v -0.264583 -0.264583 h 0.38756 0.38757 l 0.27389,-0.511773 0.27389,-0.511773 V 43.560593 37.87386 l -0.69714,-0.54837 -0.69714,-0.54837 h 4.79818 4.79819 v 1.455208 1.455209 l -0.33073,-7.15e-4 -0.33073,-7.15e-4 -0.52917,-0.991473 -0.52917,-0.991472 -2.44739,-0.07608 -2.4474,-0.07607 v 2.788053 2.788054 h 1.5465 1.54649 l 0.43788,-0.483854 0.43788,-0.483854 v -0.309896 -0.309896 h 0.39688 0.39687 v 1.852084 1.852083 h -0.3544 -0.35441 l -0.30138,-0.661458 -0.30138,-0.661459 h -1.72546 -1.72547 v 3.042709 3.042708 h 2.22976 2.22975 l 0.55412,-0.704448 0.55412,-0.704448 0.15523,-0.618469 0.15522,-0.618468 h 0.36819 0.3682 v 1.719791 1.719792 z m 12.40455,0 h -4.46705 v -0.264583 -0.264583 h 0.38756 0.38757 l 0.27389,-0.511773 0.27389,-0.511773 V 43.66102 38.074743 l -0.70009,-0.648825 -0.70009,-0.648825 h 2.19393 2.19394 l -0.70009,0.648825 -0.7001,0.648825 v 5.993774 5.993774 l 2.14021,-0.09719 2.14022,-0.09719 0.37874,-0.517961 0.37874,-0.517961 0.26937,-1.000362 0.26937,-1.000363 h 0.38668 0.38667 l -0.004,1.389063 -0.004,1.389062 -0.15954,0.595313 -0.15954,0.595312 z m -148.97535,-3.192907 -1.14483,-0.01791 -0.58141,-0.280904 -0.58141,-0.280904 -0.41078,-0.865654 -0.41078,-0.865655 v -0.568465 -0.568466 l 0.40135,-0.776132 0.40136,-0.776132 0.83233,-0.430416 0.83233,-0.430415 1.08101,0.144993 1.081,0.144993 0.59384,0.690377 0.59384,0.690377 0.16286,0.6489 0.16286,0.6489 -0.17452,0.695361 -0.17453,0.695361 -0.75984,0.759847 -0.75985,0.759848 z m 164.83542,0 -1.14483,-0.01791 -0.58141,-0.280904 -0.58141,-0.280904 -0.41078,-0.865654 -0.41078,-0.865655 v -0.568465 -0.568466 l 0.40136,-0.776132 0.40135,-0.776132 0.83233,-0.430416 0.83233,-0.430415 1.08101,0.144993 1.08101,0.144993 0.59383,0.690377 0.59384,0.690377 0.16286,0.6489 0.16287,0.6489 -0.17453,0.695361 -0.17452,0.695361 -0.75985,0.759847 -0.75985,0.759848 z m -141.16595,-70.912157 -0.7421,0.212832 -0.61503,-0.227515 -0.61503,-0.227515 -0.70178,-1.587829 -0.70178,-1.587828 h -0.16722 -0.16722 l -1.70711,1.317871 -1.70711,1.317871 -1.13916,0.40192 -1.13917,0.401921 -1.62038,-0.0015 -1.62038,-0.0015 -0.98397,-0.273276 -0.98397,-0.273275 -0.81147,-0.682807 -0.81147,-0.682807 -0.34959,-0.696088 -0.34958,-0.696088 -0.17063,-0.895723 -0.17063,-0.895723 0.27209,-1.010476 0.2721,-1.010476 0.71717,-0.852314 0.71717,-0.852314 2.12014,-0.988518 2.12014,-0.988519 2.38125,-0.656517 2.38125,-0.656517 1.19437,-0.52124 1.19437,-0.521239 0.35003,-0.421756 0.35003,-0.421757 -0.0895,-2.987831 -0.0895,-2.98783 -0.39657,-0.769955 -0.39657,-0.769955 -0.69738,-0.51591 -0.69738,-0.51591 -1.15471,-0.117631 -1.1547,-0.117632 -0.90723,0.477455 -0.90724,0.477454 -0.47915,0.661459 -0.47914,0.661458 -0.0688,1.308912 -0.0688,1.308913 -2.38125,0.742549 -2.38125,0.742549 -0.52916,-0.06709 -0.52917,-0.06709 0.091,-0.919173 0.091,-0.919173 0.48445,-0.949596 0.48444,-0.949596 1.01205,-0.989492 1.01204,-0.989491 1.32292,-0.755033 1.32291,-0.755032 1.43709,-0.421603 1.43708,-0.421603 h 2.03826 2.03826 l 1.41945,0.455581 1.41945,0.455581 1.22542,1.220262 1.22542,1.220261 0.29593,1.379889 0.29594,1.379889 v 6.428262 6.428262 l 0.48385,0.437882 0.48385,0.437882 h 0.93568 0.93567 l 0.69714,-0.54837 0.69714,-0.548371 v 0.781082 0.781081 l -1.12448,0.915723 -1.12448,0.915723 -1.64159,1.115535 -1.64159,1.115536 z m -8.54449,-3.417855 h 1.48566 l 1.4011,-0.698196 1.4011,-0.698196 0.50194,-0.823159 0.50195,-0.823158 9.9e-4,-2.299489 9.9e-4,-2.29949 -0.21692,-0.134064 -0.21693,-0.134065 -3.1465,1.447981 -3.1465,1.447982 -0.60128,0.564867 -0.60127,0.564867 -0.16147,0.860724 -0.16148,0.860724 0.1781,0.561119 0.17809,0.56112 0.55839,0.520216 0.55838,0.520217 z m 174.14725,3.425429 -0.71569,0.205258 -0.5912,-0.218699 -0.5912,-0.218699 -0.522,-0.858357 -0.52199,-0.858356 -0.16626,-0.756955 -0.16625,-0.756956 -0.33589,0.128893 -0.33589,0.128892 -1.8218,1.310068 -1.8218,1.310067 -0.89938,0.299499 -0.89938,0.299499 -1.61416,-0.0015 -1.61417,-0.0015 -1.05746,-0.293567 -1.05746,-0.293567 -1.10014,-1.100139 -1.10014,-1.100139 -0.19149,-1.276985 -0.1915,-1.276985 0.29219,-0.975242 0.29219,-0.975243 0.86628,-0.892999 0.86628,-0.893 1.64732,-0.751023 1.64732,-0.751023 2.85039,-0.823625 2.85039,-0.823625 1.13309,-0.532612 1.13308,-0.532612 0.28841,-0.538895 0.28841,-0.538895 -0.11648,-2.82706 -0.11648,-2.827059 -0.51106,-0.870517 -0.51105,-0.870516 -0.92192,-0.492944 -0.92191,-0.492944 h -0.85505 -0.85505 l -0.93517,0.445953 -0.93517,0.445953 -0.55755,1.151736 -0.55755,1.151735 0.11521,0.784952 0.11521,0.784952 -2.79865,0.907331 -2.79865,0.907331 -0.20843,-0.204337 -0.20843,-0.204338 0.1803,-1.127537 0.1803,-1.127536 0.84678,-1.228759 0.84678,-1.22876 1.63135,-1.116387 1.63135,-1.116388 1.78333,-0.552318 1.78333,-0.552319 1.90152,-0.0014 1.90151,-0.0014 1.0089,0.279616 1.00891,0.279616 1.04733,0.597224 1.04732,0.597224 0.80476,1.144081 0.80475,1.144081 0.13229,7.359322 0.1323,7.359322 0.50402,0.556331 0.50403,0.556332 h 0.98165 0.98164 l 0.69714,-0.54837 0.69714,-0.548371 v 0.630093 0.630092 l -0.33073,0.426596 -0.33073,0.426596 -1.19062,0.891554 -1.19063,0.891555 -1.27112,0.871671 -1.27112,0.871672 z m -8.59419,-3.43124 1.53338,-0.0058 1.05834,-0.508515 1.05833,-0.508515 0.59174,-0.517376 0.59173,-0.517377 0.26816,-0.705314 0.26816,-0.705313 v -2.083828 -2.083828 l -0.25178,-0.155611 -0.25179,-0.155611 -3.2657,1.550473 -3.2657,1.550474 -0.58356,0.741871 -0.58355,0.741871 v 1.034678 1.034679 l 0.64943,0.649432 0.64943,0.649432 z m -263.41269,3.405751 -2.01852,-0.03964 -0.79375,-0.109771 -0.79375,-0.109771 -1.5875,-0.397167 -1.5875,-0.397167 -2.24896,-1.075025 -2.24896,-1.075026 -2.12093,-2.148706 -2.12092,-2.148706 -1.12095,-2.248959 -1.12095,-2.248958 -0.45894,-1.719792 -0.45893,-1.719792 0.015,-3.439583 0.0151,-3.439583 0.70243,-2.116667 0.70243,-2.116667 0.99895,-1.719792 0.99896,-1.719791 1.85209,-1.869319 1.85208,-1.869319 1.24041,-0.844113 1.24041,-0.844114 2.06688,-0.829905 2.06688,-0.829905 2.42581,-0.414708 2.42581,-0.414708 2.86586,0.320173 2.86586,0.320173 3.49189,0.922727 3.4919,0.922727 1.20446,-0.165089 1.20445,-0.165089 v 4.553281 4.55328 l -0.4556,-0.08774 -0.4556,-0.08774 -0.69632,-1.668805 -0.69633,-1.668806 -0.80446,-1.141307 -0.80447,-1.141308 -1.18784,-0.817254 -1.18784,-0.817254 -2.08129,-0.714566 -2.08129,-0.714567 -2.91041,-0.01172 -2.91042,-0.01172 -1.47546,0.447291 -1.47546,0.447292 -1.43496,0.945796 -1.43495,0.945797 -1.02763,1.375259 -1.02762,1.375259 -0.4897,1.087379 -0.4897,1.08738 -0.4131,1.612455 -0.41309,1.612456 -0.22514,2.591831 -0.22515,2.591832 0.25762,2.365676 0.25763,2.365676 0.6344,1.999949 0.63439,1.99995 0.99896,1.707303 0.99896,1.707304 1.4887,1.501187 1.4887,1.501186 1.79167,0.882039 1.79168,0.882039 2.43608,0.106546 2.43609,0.106546 1.43464,-0.417061 1.43464,-0.417062 0.74618,-0.778847 0.74619,-0.778847 -0.098,-3.662625 -0.098,-3.662625 -0.47585,-0.883083 -0.47585,-0.883083 -1.1917,-0.527146 -1.1917,-0.527147 -1.50149,-0.150911 -1.50149,-0.150912 -0.17396,-0.266949 -0.17396,-0.266949 0.13612,-0.354723 0.13612,-0.354722 h 8.95191 8.95191 l 0.14877,0.240707 0.14876,0.240706 -0.15175,0.395447 -0.15174,0.395447 -1.57765,0.590001 -1.57765,0.590001 -0.52042,0.66161 -0.52042,0.66161 v 4.426103 4.426103 l -1.52136,0.673576 -1.52135,0.673577 -2.24896,0.708251 -2.24896,0.708252 -2.87626,0.506388 -2.87627,0.506388 z m 34.2294,-0.05168 -2.11667,0.08529 -1.27395,-0.406874 -1.27395,-0.406874 -1.30429,-0.802543 -1.3043,-0.802543 -1.19712,-1.367255 -1.19711,-1.367254 -0.55033,-1.455209 -0.55034,-1.455208 -0.25227,-1.78697 -0.25227,-1.786971 0.39725,-2.301966 0.39725,-2.301967 0.98046,-1.983821 0.98045,-1.983821 1.24533,-1.24533 1.24533,-1.24533 1.13671,-0.579902 1.1367,-0.579902 1.30314,-0.386992 1.30314,-0.386992 2.2033,-0.0061 2.2033,-0.0061 1.26597,0.559998 1.26597,0.559998 0.90301,0.688758 0.903,0.688757 1.02864,1.591501 1.02864,1.591502 0.43541,1.38129 0.43541,1.38129 -0.17472,0.696138 -0.17472,0.696138 h -7.92047 -7.92047 l -0.15691,0.859896 -0.15691,0.859896 0.26178,1.817851 0.26178,1.817851 0.68558,1.401279 0.68558,1.401278 1.11579,1.084942 1.11579,1.084942 1.39899,0.524574 1.39899,0.524575 1.24684,-0.0015 1.24685,-0.0015 0.93692,-0.260282 0.93691,-0.260283 1.44434,-0.877447 1.44433,-0.877447 0.58875,-0.375549 0.58875,-0.375549 0.38614,0.522567 0.38614,0.522566 -0.8426,0.894408 -0.8426,0.894407 -1.71979,1.109217 -1.71979,1.109217 -1.45521,0.620049 -1.45521,0.620048 z m -0.26459,-16.577428 h 4.8948 v -0.908817 -0.908817 l -0.28142,-0.744829 -0.28142,-0.744828 -0.71077,-0.751226 -0.71077,-0.751225 -0.71446,-0.373254 -0.71447,-0.373254 h -1.30615 -1.30616 l -1.28667,0.859896 -1.28667,0.859896 -0.59532,1.180542 -0.59531,1.180541 v 0.737688 0.737687 z m 23.57459,16.66294 -1.085,-0.0058 -1.19063,-0.538953 -1.19062,-0.538953 -0.75184,-0.712007 -0.75183,-0.712007 -0.57108,-1.058333 -0.57109,-1.058333 -0.0804,-7.989731 -0.0804,-7.98973 -1.22186,-0.08006 -1.22186,-0.08006 -0.0909,-0.276728 -0.0909,-0.276727 1.66044,-1.219177 1.66044,-1.219177 1.58939,-1.679096 1.5894,-1.679096 0.75865,-0.595312 0.75864,-0.595313 h 0.62578 0.62578 v 0.348853 0.348853 l -0.41501,1.397466 -0.415,1.397467 0.14212,0.370347 0.14211,0.370348 h 3.70743 3.70743 l 0.12067,0.595312 0.12067,0.595313 0.15208,1.124479 0.15208,1.124479 h -4.10417 -4.10416 v 7.16991 7.16991 l 0.40962,0.863222 0.40963,0.863222 0.66115,0.301244 0.66116,0.301243 h 0.65751 0.65751 l 0.96944,-0.405061 0.96945,-0.405061 0.85649,-0.653273 0.85648,-0.653272 h 0.41453 0.41453 l -1.7e-4,0.463021 -1.7e-4,0.463021 -1.17718,1.499509 -1.17718,1.499508 -1.13776,0.773631 -1.13775,0.773631 -0.89938,0.306548 -0.89938,0.306548 z m 133.47944,-0.06777 -2.27277,0.08534 -1.39607,-0.517796 -1.39606,-0.517795 -0.88107,-0.544528 -0.88106,-0.544528 -1.24711,-1.333256 -1.2471,-1.333256 -0.64488,-1.40861 -0.64489,-1.408611 -0.29075,-1.559502 -0.29075,-1.559503 0.17243,-1.929341 0.17243,-1.929341 0.51322,-1.661619 0.51322,-1.661618 1.0154,-1.568416 1.0154,-1.568416 0.98265,-0.860388 0.98265,-0.860388 1.25143,-0.63415 1.25144,-0.63415 1.14441,-0.308159 1.14442,-0.308159 2.21685,-0.0062 2.21686,-0.0062 1.3968,0.643207 1.3968,0.643208 1.10781,1.113983 1.10781,1.113982 0.67526,1.152235 0.67525,1.152234 0.38013,1.459422 0.38013,1.459423 -0.14353,0.548882 -0.14354,0.548883 h -7.9016 -7.9016 l -0.173,0.689269 -0.17299,0.689269 0.15188,1.626426 0.15187,1.626427 0.59461,1.553809 0.59461,1.553808 1.21739,1.249849 1.21739,1.249848 1.5213,0.569189 1.52129,0.56919 h 1.31016 1.31015 l 1.34778,-0.512117 1.34778,-0.512116 1.44196,-0.993114 1.44195,-0.993114 0.53725,0.537241 0.53724,0.537241 -1.45888,1.333327 -1.45887,1.333327 -2.56906,1.274993 -2.56906,1.274993 z m -0.28009,-16.59517 h 4.7708 l 0.15306,-0.398867 0.15306,-0.398867 -0.1678,-0.894482 -0.16781,-0.894481 -0.58887,-0.865136 -0.58887,-0.865136 -0.71663,-0.530817 -0.71663,-0.530816 -1.42291,-0.117999 -1.4229,-0.117998 -0.90317,0.456255 -0.90318,0.456255 -0.74927,0.697399 -0.74928,0.697399 -0.3752,0.892207 -0.37521,0.892208 v 0.761438 0.761438 z m 153.04397,16.668751 h -1.38559 l -1.41444,-0.738912 -1.41444,-0.738912 -0.84037,-1.101797 -0.84037,-1.101796 -0.28895,-1.347315 -0.28894,-1.347314 v -7.116231 -7.11623 l -1.23609,-0.08064 -1.23609,-0.08064 -0.0731,-0.264584 -0.0731,-0.264583 1.4596,-1.047178 1.4596,-1.047177 2.297,-2.320909 2.297,-2.320909 0.85989,-0.170716 0.8599,-0.170716 v 0.514218 0.514217 l -0.40887,1.376802 -0.40886,1.376802 0.1599,0.258721 0.15989,0.25872 h 3.67294 3.67294 l 0.12146,0.198437 0.12147,0.198438 0.18834,1.514303 0.18833,1.514304 -4.0645,0.0732 -4.0645,0.0732 v 7.323197 7.323197 l 0.5562,0.746595 0.55619,0.746595 0.66047,0.235408 0.66047,0.235407 0.95398,-0.178969 0.95399,-0.178969 1.36167,-0.916335 1.36167,-0.916334 h 0.37028 0.37029 v 0.489469 0.489469 l -0.7609,1.031885 -0.7609,1.031886 -0.89275,0.838347 -0.89274,0.838347 -1.29618,0.683007 -1.29618,0.683007 z m -268.6835,-0.529167 h -7.41664 l -0.15229,-0.396875 -0.1523,-0.396875 0.14218,-0.370506 0.14218,-0.370506 1.12923,-0.190782 1.12923,-0.190783 0.74127,-0.741275 0.74128,-0.741276 v -7.290295 -7.290295 l -0.59532,-0.385732 -0.59531,-0.385732 -1.25677,-0.313236 -1.25677,-0.313236 v -0.304983 -0.304984 l 4.56406,-2.145093 4.56407,-2.145094 0.19843,0.115852 0.19844,0.115852 v 2.497927 2.497927 h 0.25005 0.25004 l 1.21593,-1.492673 1.21592,-1.492672 0.95166,-0.756286 0.95166,-0.756286 h 0.8474 0.8474 l 1.62976,0.8144 1.62976,0.814401 -0.002,0.574662 -0.002,0.574662 -0.79662,1.389062 -0.79662,1.389063 h -0.36959 -0.36959 l -1.23449,-0.529167 -1.2345,-0.529166 h -1.2036 -1.20361 l -0.86296,0.533337 -0.86295,0.533337 -0.42505,0.895712 -0.42504,0.895711 v 6.270007 6.270006 l 0.80391,0.750962 0.80391,0.750962 1.51119,0.296858 1.5112,0.296858 0.33073,0.108363 0.33073,0.108363 v 0.669762 0.669762 z m 46.67407,0 h -6.74883 l 0.0837,-0.701544 0.0837,-0.701545 1.19063,-0.359014 1.19062,-0.359014 0.4198,-0.328504 0.41981,-0.328504 0.3078,-0.577918 0.3078,-0.577919 v -7.419628 -7.419628 l -0.59531,-0.385056 -0.59532,-0.385057 -0.79375,-0.174801 -0.79375,-0.174802 -0.46302,-0.125529 -0.46302,-0.12553 v -0.335226 -0.335225 l 2.71198,-1.268503 2.71198,-1.268503 1.89632,-0.875318 1.89631,-0.875318 0.15421,0.401849 0.1542,0.401849 v 2.095027 2.095027 h 0.1371 0.1371 l 2.70717,-1.359263 2.70717,-1.359263 1.43049,-0.49282 1.43048,-0.492821 h 2.10537 2.10537 l 1.02356,0.575277 1.02357,0.575276 0.62427,0.946078 0.62427,0.946078 0.41671,1.322917 0.4167,1.322916 0.19174,1.058334 0.19174,1.058333 -0.0466,6.104278 -0.0466,6.104279 0.54968,0.698814 0.54969,0.698814 1.50996,0.440694 1.50996,0.440695 0.33073,0.0901 0.33073,0.0901 v 0.669762 0.669762 h -7.29362 -7.29361 l 0.0837,-0.712314 0.0837,-0.712314 0.89439,-0.230232 0.89439,-0.230231 0.60453,-0.396101 0.60453,-0.396101 0.43084,-1.076787 0.43085,-1.076786 0.14465,-2.942379 0.14465,-2.94238 -0.256,-3.509781 -0.256,-3.50978 -0.71147,-1.075111 -0.71148,-1.07511 -0.97273,-0.406434 -0.97273,-0.406433 -1.4353,0.148136 -1.4353,0.148136 -2.46923,1.193766 -2.46922,1.193767 v 7.29947 7.299469 l 0.64643,0.646427 0.64643,0.646427 1.2052,0.322344 1.20521,0.322343 0.14982,0.472044 0.14982,0.472043 -0.16499,0.266951 -0.16498,0.266951 z m 33.89986,0 h -6.78202 l 0.0837,-0.707199 0.0837,-0.7072 0.79375,-0.231175 0.79375,-0.231175 0.8588,-0.425616 0.8588,-0.425616 0.2642,-0.951114 0.26421,-0.951113 -0.002,-15.345834 -0.002,-15.345834 -0.33445,-0.661458 -0.33445,-0.661459 -1.49215,-0.396875 -1.49214,-0.396875 -0.16028,-0.160734 -0.16027,-0.160734 0.33712,-0.267799 0.33712,-0.267799 4.3254,-2.018863 4.32539,-2.018863 h 0.10638 0.10638 l 0.004,13.03073 0.004,13.03073 0.16737,0.625257 0.16737,0.625258 1.26535,-0.121584 1.26536,-0.121585 2.04802,-1.165131 2.04803,-1.165132 1.56874,-1.487011 1.56873,-1.487012 -0.0946,-0.497363 -0.0946,-0.497364 -1.53383,-0.486252 -1.53384,-0.486253 0.0846,-0.439789 0.0846,-0.43979 6.28037,-0.07093 6.28036,-0.07093 v 0.382653 0.382654 l -1.38906,0.512675 -1.38906,0.512675 -0.92604,0.30035 -0.92604,0.30035 -4.10105,3.189288 -4.10104,3.189289 v 0.316176 0.316175 l 5.02709,5.304461 5.02708,5.30446 0.92604,0.671829 0.92604,0.671829 1.52136,0.620835 1.52135,0.620836 v 0.48048 0.480479 h -7.12813 -7.12814 l -0.16498,-0.266951 -0.16499,-0.266951 0.1672,-0.526799 0.1672,-0.526799 h 0.33804 0.33804 l 0.43788,-0.483854 0.43788,-0.483854 v -0.535783 -0.535782 l -4.13969,-4.404322 -4.13968,-4.404322 h -0.19508 -0.19508 l -0.15954,0.595313 -0.15954,0.595312 -0.002,3.307292 -0.002,3.307292 0.2642,0.951113 0.2642,0.951114 0.8588,0.425616 0.85881,0.425616 0.79375,0.231175 0.79375,0.231175 0.0837,0.7072 0.0837,0.707199 z m 56.63011,0 h -6.77276 l -0.15358,-0.400244 -0.15359,-0.400245 0.29921,-0.360527 0.29921,-0.360528 1.19566,-0.334763 1.19565,-0.334764 0.51911,-0.659937 0.51911,-0.659938 v -7.631136 -7.631136 l -0.59531,-0.385732 -0.59532,-0.385732 -1.25677,-0.313236 -1.25677,-0.313236 v -0.217558 -0.217559 l 0.33073,-0.209011 0.33073,-0.209012 4.32134,-2.055562 4.32135,-2.055561 h 0.11043 0.11042 v 2.513541 2.513542 h 0.35454 0.35454 l 2.35744,-1.329095 2.35744,-1.329095 1.81357,-0.557152 1.81357,-0.557153 1.44621,0.149262 1.4462,0.149261 0.92423,0.704946 0.92423,0.704947 0.42779,0.897065 0.42778,0.897066 0.48186,0.152938 0.48186,0.152938 2.92987,-1.344762 2.92986,-1.344762 1.63378,-0.551177 1.63378,-0.551178 1.59287,0.100708 1.59288,0.100708 1.05295,0.538925 1.05296,0.538926 0.85743,1.26455 0.85743,1.26455 0.4589,1.362855 0.45891,1.362854 0.007,6.757719 0.007,6.757719 0.46457,0.709821 0.46457,0.709821 1.38751,0.387164 1.38751,0.387164 0.52917,0.08642 0.52917,0.08642 v 0.657835 0.657835 l -7.17998,0.07034 -7.17998,0.07034 -0.16677,-0.434608 -0.16678,-0.434609 0.27508,-0.331453 0.27508,-0.331453 0.81009,-0.162017 0.81008,-0.162017 0.75386,-0.536795 0.75386,-0.536796 0.30103,-1.450035 0.30102,-1.450035 -0.085,-5.622101 -0.085,-5.622102 -0.57731,-1.249714 -0.57731,-1.249714 -0.8779,-0.535235 -0.87789,-0.535234 -1.45521,0.01593 -1.45521,0.01593 -2.24896,0.989161 -2.24896,0.989161 -0.0703,7.333321 -0.0703,7.333321 0.39544,0.764687 0.39543,0.764686 1.26241,0.450071 1.2624,0.450071 0.34929,0.101948 0.34928,0.101948 -0.0847,0.596495 -0.0847,0.596496 h -6.74688 -6.74687 v -0.613578 -0.613577 l 1.43518,-0.485856 1.43517,-0.485856 0.47717,-0.620358 0.47717,-0.620359 0.006,-7.086102 0.006,-7.086103 -0.36036,-0.851398 -0.36036,-0.851397 -0.5756,-0.513001 -0.5756,-0.513001 -1.51144,-0.107092 -1.51144,-0.107093 -1.4272,0.56512 -1.4272,0.56512 -1.41707,0.940596 -1.41707,0.940597 v 6.681666 6.681666 l 0.26931,0.772538 0.26931,0.772538 0.59059,0.371013 0.59058,0.371013 1.05834,0.312517 1.05833,0.312517 0.0837,0.700081 0.0837,0.70008 z m 75.84203,-0.06199 -7.49246,0.0703 0.0841,-0.704231 0.0841,-0.704232 1.05834,-0.312061 1.05833,-0.312061 0.58374,-0.313888 0.58373,-0.313889 0.27469,-0.989074 0.27468,-0.989074 0.001,-6.26663 10e-4,-6.26663 -0.25263,-0.664483 -0.25264,-0.664482 -1.13643,-0.305365 -1.13642,-0.305366 -0.63557,-0.250668 -0.63556,-0.250669 0.24408,-0.244082 0.24409,-0.244082 4.49252,-2.127716 4.49252,-2.127717 0.0754,2.649049 0.0754,2.649049 0.32148,-0.0035 0.32147,-0.0035 1.42745,-1.743487 1.42745,-1.743488 0.82151,-0.500945 0.82151,-0.500945 0.74399,-9.89e-4 0.74398,-9.89e-4 1.41174,0.66786 1.41174,0.66786 0.32445,0.390935 0.32445,0.390936 -0.76038,1.507495 -0.76039,1.507495 -0.43266,0.257477 -0.43266,0.257476 -1.33618,-0.574808 -1.33618,-0.574809 -1.14158,9.89e-4 -1.14157,9.89e-4 -0.84552,0.515546 -0.84552,0.515546 -0.4774,0.728325 -0.4774,0.728325 v 6.255231 6.25523 l 0.3598,0.672768 0.3598,0.672768 0.69853,0.335858 0.69854,0.335859 1.5875,0.302135 1.5875,0.302135 v 0.648002 0.648003 z m 20.38433,4.06e-4 -6.68728,0.0707 -0.15405,-0.401432 -0.15404,-0.401432 0.1301,-0.339039 0.1301,-0.339039 1.35346,-0.346879 1.35345,-0.34688 0.52913,-0.672679 0.52913,-0.67268 v -16.195187 -16.195187 l -0.50825,-0.45996 -0.50825,-0.459959 -1.25989,-0.321401 -1.25989,-0.321401 -0.091,-0.272972 -0.091,-0.272973 4.58066,-2.161674 4.58067,-2.161675 h 0.18648 0.18647 l 0.0685,13.559897 0.0686,13.559896 0.98774,0.08185 0.98775,0.08185 2.08067,-1.082485 2.08067,-1.082486 1.4295,-1.213015 1.4295,-1.213015 0.39374,-0.633459 0.39373,-0.63346 -0.28608,-0.453528 -0.28608,-0.453528 -1.03423,-0.27124 -1.03424,-0.271239 -0.31863,-0.206911 -0.31864,-0.206911 0.14905,-0.388401 0.14904,-0.388402 h 6.17379 6.17378 l 0.18181,0.294164 0.1818,0.294165 -0.34375,0.212449 -0.34375,0.212449 -1.80857,0.570794 -1.80857,0.570794 -1.25501,0.846413 -1.25502,0.846412 -3.11904,2.489623 -3.11905,2.489622 0.0763,0.337654 0.0763,0.337654 5.36559,5.673478 5.36558,5.673478 1.77817,0.737089 1.77817,0.73709 0.315,0.234764 0.315,0.234764 -0.14487,0.377531 -0.14487,0.37753 h -7.11545 -7.11544 v -0.654663 -0.654664 l 0.76169,-0.393884 0.76168,-0.393884 0.16314,-0.425119 0.16313,-0.425118 -0.3462,-0.660753 -0.34621,-0.660754 -3.90566,-4.083289 -3.90567,-4.083289 h -0.24482 -0.24483 v 4.483163 4.483163 l 0.59531,0.662549 0.59531,0.66255 1.32292,0.372114 1.32292,0.372113 v 0.633737 0.633737 z m -214.68969,-28.254853 -0.60845,-0.006 -0.89389,-0.440364 -0.8939,-0.440365 -0.49418,-0.810381 -0.49417,-0.810382 -9.9e-4,-0.873035 -9.9e-4,-0.873035 0.39046,-0.755067 0.39046,-0.755067 0.89754,-0.554711 0.89754,-0.55471 0.76252,9.89e-4 0.76252,9.89e-4 0.84552,0.515546 0.84552,0.515546 0.45535,0.694949 0.45535,0.694949 v 1.17192 1.171919 l -0.63941,0.684444 -0.63941,0.684444 -0.71447,0.371736 -0.71446,0.371736 z m 11.65652,-0.107243 -0.88788,0.12713 -0.8939,-0.453321 -0.8939,-0.45332 -0.49417,-0.810381 -0.49418,-0.810382 -9.9e-4,-0.873035 -9.9e-4,-0.873035 0.39046,-0.755067 0.39046,-0.755067 0.89754,-0.554711 0.89754,-0.55471 0.76252,9.89e-4 0.76252,9.89e-4 0.84552,0.515546 0.84552,0.515546 0.42754,0.652504 0.42754,0.652504 0.0149,1.078783 0.0149,1.078782 -0.43173,0.65891 -0.43173,0.65891 -0.62979,0.412653 -0.62979,0.412654 z"
         id="path766" /></g></g></svg>
