<?xml version="1.0" encoding="UTF-8" standalone="no"?>
<!-- Generator: Adobe Illustrator 19.2.1, SVG Export Plug-In . SVG Version: 6.00 Build 0)  -->

<svg
   version="1.1"
   id="layer"
   x="0px"
   y="0px"
   viewBox="0 0 615 180"
   xml:space="preserve"
   width="615"
   height="180"
   xmlns="http://www.w3.org/2000/svg"
   xmlns:svg="http://www.w3.org/2000/svg"><defs
   id="defs11" />
<style
   type="text/css"
   id="style1">
	.st0{fill:#10298E;}
	.st1{fill:#FFBE00;}
	.st2{fill:#333333;}
</style>
<g
   id="g1"
   transform="translate(-12.118959,-182.59232)">
	<path
   id="path5689"
   class="st0"
   d="m 153.8,244.5 h -41 c 0,-6.7 -0.8,-11.3 -2.4,-13.6 -2.5,-3.4 -9.2,-5.1 -20.2,-5.1 -10.7,0 -17.8,1 -21.3,2.9 -3.5,2 -5.2,6.3 -5.2,12.8 0,6 1.5,9.9 4.6,11.8 2.2,1.4 5.1,2.1 8.8,2.4 l 8.3,0.6 c 17.7,1.2 28.8,2 33.2,2.5 14,1.4 24.2,5.1 30.5,11.2 5,4.7 7.9,10.9 8.9,18.5 0.6,4.6 0.8,9.7 0.8,15.5 0,13.2 -1.3,22.9 -3.8,29 -4.6,11.2 -14.8,18.3 -30.8,21.3 -6.7,1.3 -16.9,1.9 -30.7,1.9 -23,0 -39,-1.4 -48.1,-4.1 -11.1,-3.4 -18.4,-10.2 -22,-20.5 -2,-5.7 -3,-15.2 -3,-28.6 h 41 c 0,1.5 0,2.6 0,3.4 0,7.1 2,11.7 6.1,13.7 2.8,1.4 6.2,2.2 10.2,2.2 h 15.1 c 7.7,0 12.6,-0.4 14.7,-1.2 3.8,-1.5 6.3,-3.9 7.5,-7.2 0.6,-2 0.9,-4.7 0.9,-7.9 0,-7.2 -2.6,-11.6 -7.9,-13.2 -2,-0.6 -11.1,-1.5 -27.4,-2.6 C 67.5,289.3 58.4,288.4 53.2,287.5 39.8,285 30.8,279.8 26.3,272 c -3.9,-6.6 -5.9,-16.8 -5.9,-30.3 0,-10.3 1.1,-18.5 3.2,-24.7 2.1,-6.2 5.5,-10.9 10.3,-14.1 6.9,-5 15.8,-7.8 26.6,-8.7 9,-0.8 18.9,-1.2 29.9,-1.2 17.2,0 29.5,1 36.8,3 17.9,4.8 26.8,18.3 26.8,40.3 0.3,1.9 0.1,4.6 -0.2,8.2" />
	<path
   id="path5693"
   class="st0"
   d="m 334.4,356.2 v -164 h 64.3 10.1 7.8 c 11.3,0 19.9,0.9 25.8,2.8 13.5,4.2 22.6,12.9 27.2,26 2.4,6.9 3.6,17.2 3.6,31.1 0,16.6 -1.3,28.6 -4,35.9 -5.3,14.4 -16.1,22.7 -32.5,24.8 -1.9,0.3 -10.1,0.6 -24.6,0.8 l -7.3,0.3 h -26.3 v 42.4 h -44.1 z m 44.1,-80.4 H 406 c 8.7,-0.3 14,-1 15.9,-2 2.6,-1.4 4.4,-4.3 5.3,-8.6 0.6,-2.9 0.8,-7.1 0.8,-12.8 0,-6.9 -0.6,-12.1 -1.7,-15.4 -1.6,-4.7 -5.4,-7.6 -11.4,-8.6 -1.2,-0.2 -4,-0.3 -8.6,-0.3 h -27.9 l 0.1,47.7 c 0.1,0 0,0 0,0 z" />
	<path
   id="path5697"
   class="st0"
   d="m 567.4,327.8 h -59 l -7.9,28.3 h -45.7 l 49.3,-164 h 66.6 l 49.8,164 h -44.7 z m -8.7,-31.9 -20.7,-71.1 -20.1,71.1 z" />
	<path
   id="path5701"
   class="st1"
   d="m 273.5,215.3 c 18.2,0 34.4,8.4 45.1,21.5 l 9.5,-20.4 c -14.9,-14.1 -35.1,-22.7 -57.5,-22.7 -34.8,0 -64.5,21 -76.7,50.7 h -18.6 l -11,23.5 h 23.8 c -0.2,2.2 -0.3,4.4 -0.3,6.6 0,2.7 0.1,5.3 0.4,8 h -12 l -11,23.5 h 29.1 c 12.5,29 41.9,49.3 76.1,49.3 17.2,0 33.2,-5.2 46.5,-14 v -28.8 c -10.7,12.2 -26.3,19.8 -43.7,19.8 -20.3,0 -38.2,-10.5 -48.7,-26.4 h 60.8 l 11,-23.5 h -80.7 c -0.4,-2.8 -0.6,-5.7 -0.6,-8.6 0,-2 0.1,-3.9 0.3,-5.9 h 87.8 l 11,-23.5 H 222.9 C 233.2,227 252,215.3 273.5,215.3" />
	<path
   id="path5705"
   class="st0"
   d="m 273.5,216 c 17.4,0 33.6,7.8 44.6,21.3 l 0.7,0.9 0.5,-1 9.5,-20.4 0.2,-0.5 -0.4,-0.3 c -15.7,-14.8 -36.3,-23 -58,-23 -17,0 -33.3,5 -47.2,14.4 -13.6,9.1 -24,21.9 -30.2,36.8 l 0.6,-0.4 h -18.6 -0.5 l -0.2,0.4 -11,23.5 -0.5,1 h 1.1 23.8 l -0.7,-0.8 c -0.2,2.5 -0.3,4.6 -0.3,6.6 0,2.6 0.1,5.3 0.4,8 l 0.7,-0.8 h -12 -0.5 l -0.2,0.4 -10.9,23.3 -0.5,1 h 1.1 29.1 l -0.6,-0.4 c 13.1,30.2 43.2,49.8 76.8,49.8 16.8,0 33,-4.9 46.9,-14.1 l 0.3,-0.2 v -0.4 -28.8 -1.9 l -1.2,1.4 c -10.9,12.5 -26.7,19.6 -43.2,19.6 -19.4,0 -37.4,-9.7 -48.1,-26 l -0.6,1.1 h 60.8 0.5 l 0.2,-0.4 11,-23.5 0.5,-1 h -1.1 -80.7 l 0.7,0.6 c -0.4,-2.8 -0.6,-5.7 -0.6,-8.6 0,-1.9 0.1,-3.9 0.3,-5.8 l -0.7,0.6 h 87.9 0.5 l 0.2,-0.4 11,-23.5 0.5,-1 h -1.1 -91.2 l 0.6,1.1 C 234,227 253.1,216 273.5,216 m -50.4,29.1 h 91.2 l -0.6,-1 -10.9,23.5 0.6,-0.4 H 215.6 215 l -0.1,0.6 c -0.2,2 -0.3,4 -0.3,6 0,2.9 0.2,5.8 0.6,8.8 l 0.1,0.6 h 0.6 80.8 l -0.6,-1 -11,23.5 0.6,-0.4 h -60.8 -1.3 l 0.7,1.1 c 11,16.7 29.3,26.7 49.3,26.7 16.9,0 33,-7.3 44.2,-20.1 l -1.2,-0.5 v 28.8 l 0.3,-0.6 c -13.6,9.1 -29.6,13.9 -46.1,13.9 -33,0 -62.6,-19.2 -75.5,-48.9 l -0.2,-0.4 h -0.5 -29.1 l 0.6,1 10.9,-23.5 -0.6,0.4 h 12 0.8 l -0.1,-0.8 c -0.3,-2.7 -0.4,-5.3 -0.4,-7.9 0,-2 0.1,-4.1 0.3,-6.5 v -0.8 h -0.8 -23.8 l 0.6,1 11,-23.5 -0.6,0.4 h 18.6 0.5 l 0.2,-0.4 c 6,-14.7 16.3,-27.2 29.6,-36.2 13.7,-9.2 29.7,-14.1 46.4,-14.1 21.4,0 41.6,8 57,22.5 l -0.2,-0.8 -9.5,20.4 1.2,-0.2 c -11.3,-13.8 -27.9,-21.8 -45.7,-21.8 -20.9,0 -40.4,11.3 -50.9,29.5 l -0.6,1.1 z" />
</g>

</svg>
